<mxfile host="app.diagrams.net" modified="2023-06-03T02:02:44.324Z" agent="Mozilla/5.0 (Windows NT 10.0; Win64; x64) AppleWebKit/537.36 (KHTML, like Gecko) Chrome/113.0.0.0 Safari/537.36" etag="EEjeE92xjxMpTlFyW8Q9" version="21.3.3" type="device">
  <diagram id="C5RBs43oDa-KdzZeNtuy" name="Page-1">
    <mxGraphModel dx="1050" dy="581" grid="1" gridSize="10" guides="1" tooltips="1" connect="1" arrows="1" fold="1" page="1" pageScale="1" pageWidth="827" pageHeight="1169" math="0" shadow="0">
      <root>
        <mxCell id="WIyWlLk6GJQsqaUBKTNV-0" />
        <mxCell id="WIyWlLk6GJQsqaUBKTNV-1" parent="WIyWlLk6GJQsqaUBKTNV-0" />
        <mxCell id="GQACmn0jV0vaVqxmoJ_N-4" value="Client" style="html=1;whiteSpace=wrap;" parent="WIyWlLk6GJQsqaUBKTNV-1" vertex="1">
          <mxGeometry x="382" y="150" width="110" height="50" as="geometry" />
        </mxCell>
        <mxCell id="rb7w-Ha4YxeDnHHOrzNe-39" value="" style="endArrow=open;endFill=1;endSize=12;html=1;rounded=0;" parent="WIyWlLk6GJQsqaUBKTNV-1" source="GQACmn0jV0vaVqxmoJ_N-4" target="qv7GSy7Ds0lQ_0GEcJ8r-0" edge="1">
          <mxGeometry width="160" relative="1" as="geometry">
            <mxPoint x="430" y="100" as="sourcePoint" />
            <mxPoint x="460" y="190" as="targetPoint" />
          </mxGeometry>
        </mxCell>
        <mxCell id="qv7GSy7Ds0lQ_0GEcJ8r-0" value="BrowserGame" style="swimlane;fontStyle=1;align=center;verticalAlign=top;childLayout=stackLayout;horizontal=1;startSize=26;horizontalStack=0;resizeParent=1;resizeParentMax=0;resizeLast=0;collapsible=1;marginBottom=0;whiteSpace=wrap;html=1;" vertex="1" parent="WIyWlLk6GJQsqaUBKTNV-1">
          <mxGeometry x="314" y="240" width="246" height="268" as="geometry" />
        </mxCell>
        <mxCell id="qv7GSy7Ds0lQ_0GEcJ8r-1" value="- coins: number" style="text;strokeColor=none;fillColor=none;align=left;verticalAlign=top;spacingLeft=4;spacingRight=4;overflow=hidden;rotatable=0;points=[[0,0.5],[1,0.5]];portConstraint=eastwest;whiteSpace=wrap;html=1;" vertex="1" parent="qv7GSy7Ds0lQ_0GEcJ8r-0">
          <mxGeometry y="26" width="246" height="26" as="geometry" />
        </mxCell>
        <mxCell id="qv7GSy7Ds0lQ_0GEcJ8r-4" value="- score: number" style="text;strokeColor=none;fillColor=none;align=left;verticalAlign=top;spacingLeft=4;spacingRight=4;overflow=hidden;rotatable=0;points=[[0,0.5],[1,0.5]];portConstraint=eastwest;whiteSpace=wrap;html=1;" vertex="1" parent="qv7GSy7Ds0lQ_0GEcJ8r-0">
          <mxGeometry y="52" width="246" height="26" as="geometry" />
        </mxCell>
        <mxCell id="qv7GSy7Ds0lQ_0GEcJ8r-5" value="- lvl: number" style="text;strokeColor=none;fillColor=none;align=left;verticalAlign=top;spacingLeft=4;spacingRight=4;overflow=hidden;rotatable=0;points=[[0,0.5],[1,0.5]];portConstraint=eastwest;whiteSpace=wrap;html=1;" vertex="1" parent="qv7GSy7Ds0lQ_0GEcJ8r-0">
          <mxGeometry y="78" width="246" height="26" as="geometry" />
        </mxCell>
        <mxCell id="qv7GSy7Ds0lQ_0GEcJ8r-6" value="- currentSave: Memento | null" style="text;strokeColor=none;fillColor=none;align=left;verticalAlign=top;spacingLeft=4;spacingRight=4;overflow=hidden;rotatable=0;points=[[0,0.5],[1,0.5]];portConstraint=eastwest;whiteSpace=wrap;html=1;" vertex="1" parent="qv7GSy7Ds0lQ_0GEcJ8r-0">
          <mxGeometry y="104" width="246" height="26" as="geometry" />
        </mxCell>
        <mxCell id="qv7GSy7Ds0lQ_0GEcJ8r-2" value="" style="line;strokeWidth=1;fillColor=none;align=left;verticalAlign=middle;spacingTop=-1;spacingLeft=3;spacingRight=3;rotatable=0;labelPosition=right;points=[];portConstraint=eastwest;strokeColor=inherit;" vertex="1" parent="qv7GSy7Ds0lQ_0GEcJ8r-0">
          <mxGeometry y="130" width="246" height="8" as="geometry" />
        </mxCell>
        <mxCell id="qv7GSy7Ds0lQ_0GEcJ8r-3" value="+ setData(coins, score, lvl, name): void" style="text;strokeColor=none;fillColor=none;align=left;verticalAlign=top;spacingLeft=4;spacingRight=4;overflow=hidden;rotatable=0;points=[[0,0.5],[1,0.5]];portConstraint=eastwest;whiteSpace=wrap;html=1;" vertex="1" parent="qv7GSy7Ds0lQ_0GEcJ8r-0">
          <mxGeometry y="138" width="246" height="26" as="geometry" />
        </mxCell>
        <mxCell id="qv7GSy7Ds0lQ_0GEcJ8r-7" value="+ getData(): void" style="text;strokeColor=none;fillColor=none;align=left;verticalAlign=top;spacingLeft=4;spacingRight=4;overflow=hidden;rotatable=0;points=[[0,0.5],[1,0.5]];portConstraint=eastwest;whiteSpace=wrap;html=1;" vertex="1" parent="qv7GSy7Ds0lQ_0GEcJ8r-0">
          <mxGeometry y="164" width="246" height="26" as="geometry" />
        </mxCell>
        <mxCell id="qv7GSy7Ds0lQ_0GEcJ8r-8" value="+ saveGame(name): void" style="text;strokeColor=none;fillColor=none;align=left;verticalAlign=top;spacingLeft=4;spacingRight=4;overflow=hidden;rotatable=0;points=[[0,0.5],[1,0.5]];portConstraint=eastwest;whiteSpace=wrap;html=1;" vertex="1" parent="qv7GSy7Ds0lQ_0GEcJ8r-0">
          <mxGeometry y="190" width="246" height="26" as="geometry" />
        </mxCell>
        <mxCell id="qv7GSy7Ds0lQ_0GEcJ8r-9" value="+ loadGame(name): void" style="text;strokeColor=none;fillColor=none;align=left;verticalAlign=top;spacingLeft=4;spacingRight=4;overflow=hidden;rotatable=0;points=[[0,0.5],[1,0.5]];portConstraint=eastwest;whiteSpace=wrap;html=1;" vertex="1" parent="qv7GSy7Ds0lQ_0GEcJ8r-0">
          <mxGeometry y="216" width="246" height="26" as="geometry" />
        </mxCell>
        <mxCell id="qv7GSy7Ds0lQ_0GEcJ8r-10" value="+ undo(): void" style="text;strokeColor=none;fillColor=none;align=left;verticalAlign=top;spacingLeft=4;spacingRight=4;overflow=hidden;rotatable=0;points=[[0,0.5],[1,0.5]];portConstraint=eastwest;whiteSpace=wrap;html=1;" vertex="1" parent="qv7GSy7Ds0lQ_0GEcJ8r-0">
          <mxGeometry y="242" width="246" height="26" as="geometry" />
        </mxCell>
        <mxCell id="qv7GSy7Ds0lQ_0GEcJ8r-11" value="Memento" style="swimlane;fontStyle=1;align=center;verticalAlign=top;childLayout=stackLayout;horizontal=1;startSize=26;horizontalStack=0;resizeParent=1;resizeParentMax=0;resizeLast=0;collapsible=1;marginBottom=0;whiteSpace=wrap;html=1;" vertex="1" parent="WIyWlLk6GJQsqaUBKTNV-1">
          <mxGeometry x="90" y="266" width="160" height="216" as="geometry" />
        </mxCell>
        <mxCell id="qv7GSy7Ds0lQ_0GEcJ8r-15" value="- coins: number" style="text;strokeColor=none;fillColor=none;align=left;verticalAlign=top;spacingLeft=4;spacingRight=4;overflow=hidden;rotatable=0;points=[[0,0.5],[1,0.5]];portConstraint=eastwest;whiteSpace=wrap;html=1;" vertex="1" parent="qv7GSy7Ds0lQ_0GEcJ8r-11">
          <mxGeometry y="26" width="160" height="26" as="geometry" />
        </mxCell>
        <mxCell id="qv7GSy7Ds0lQ_0GEcJ8r-16" value="- score: number" style="text;strokeColor=none;fillColor=none;align=left;verticalAlign=top;spacingLeft=4;spacingRight=4;overflow=hidden;rotatable=0;points=[[0,0.5],[1,0.5]];portConstraint=eastwest;whiteSpace=wrap;html=1;" vertex="1" parent="qv7GSy7Ds0lQ_0GEcJ8r-11">
          <mxGeometry y="52" width="160" height="26" as="geometry" />
        </mxCell>
        <mxCell id="qv7GSy7Ds0lQ_0GEcJ8r-17" value="- lvl: number" style="text;strokeColor=none;fillColor=none;align=left;verticalAlign=top;spacingLeft=4;spacingRight=4;overflow=hidden;rotatable=0;points=[[0,0.5],[1,0.5]];portConstraint=eastwest;whiteSpace=wrap;html=1;" vertex="1" parent="qv7GSy7Ds0lQ_0GEcJ8r-11">
          <mxGeometry y="78" width="160" height="26" as="geometry" />
        </mxCell>
        <mxCell id="qv7GSy7Ds0lQ_0GEcJ8r-18" value="+ name: string" style="text;strokeColor=none;fillColor=none;align=left;verticalAlign=top;spacingLeft=4;spacingRight=4;overflow=hidden;rotatable=0;points=[[0,0.5],[1,0.5]];portConstraint=eastwest;whiteSpace=wrap;html=1;" vertex="1" parent="qv7GSy7Ds0lQ_0GEcJ8r-11">
          <mxGeometry y="104" width="160" height="26" as="geometry" />
        </mxCell>
        <mxCell id="qv7GSy7Ds0lQ_0GEcJ8r-13" value="" style="line;strokeWidth=1;fillColor=none;align=left;verticalAlign=middle;spacingTop=-1;spacingLeft=3;spacingRight=3;rotatable=0;labelPosition=right;points=[];portConstraint=eastwest;strokeColor=inherit;" vertex="1" parent="qv7GSy7Ds0lQ_0GEcJ8r-11">
          <mxGeometry y="130" width="160" height="8" as="geometry" />
        </mxCell>
        <mxCell id="qv7GSy7Ds0lQ_0GEcJ8r-14" value="+ getCoins(): number" style="text;strokeColor=none;fillColor=none;align=left;verticalAlign=top;spacingLeft=4;spacingRight=4;overflow=hidden;rotatable=0;points=[[0,0.5],[1,0.5]];portConstraint=eastwest;whiteSpace=wrap;html=1;" vertex="1" parent="qv7GSy7Ds0lQ_0GEcJ8r-11">
          <mxGeometry y="138" width="160" height="26" as="geometry" />
        </mxCell>
        <mxCell id="qv7GSy7Ds0lQ_0GEcJ8r-19" value="+ getScore(): number" style="text;strokeColor=none;fillColor=none;align=left;verticalAlign=top;spacingLeft=4;spacingRight=4;overflow=hidden;rotatable=0;points=[[0,0.5],[1,0.5]];portConstraint=eastwest;whiteSpace=wrap;html=1;" vertex="1" parent="qv7GSy7Ds0lQ_0GEcJ8r-11">
          <mxGeometry y="164" width="160" height="26" as="geometry" />
        </mxCell>
        <mxCell id="qv7GSy7Ds0lQ_0GEcJ8r-20" value="+ getLevel(): number" style="text;strokeColor=none;fillColor=none;align=left;verticalAlign=top;spacingLeft=4;spacingRight=4;overflow=hidden;rotatable=0;points=[[0,0.5],[1,0.5]];portConstraint=eastwest;whiteSpace=wrap;html=1;" vertex="1" parent="qv7GSy7Ds0lQ_0GEcJ8r-11">
          <mxGeometry y="190" width="160" height="26" as="geometry" />
        </mxCell>
        <mxCell id="qv7GSy7Ds0lQ_0GEcJ8r-21" value="SaveDirectory" style="swimlane;fontStyle=1;align=center;verticalAlign=top;childLayout=stackLayout;horizontal=1;startSize=26;horizontalStack=0;resizeParent=1;resizeParentMax=0;resizeLast=0;collapsible=1;marginBottom=0;whiteSpace=wrap;html=1;" vertex="1" parent="WIyWlLk6GJQsqaUBKTNV-1">
          <mxGeometry x="70" y="540" width="200" height="60" as="geometry" />
        </mxCell>
        <mxCell id="qv7GSy7Ds0lQ_0GEcJ8r-22" value="&amp;lt;&amp;lt;static&amp;gt;&amp;gt; saves: Memento[]" style="text;strokeColor=none;fillColor=none;align=left;verticalAlign=top;spacingLeft=4;spacingRight=4;overflow=hidden;rotatable=0;points=[[0,0.5],[1,0.5]];portConstraint=eastwest;whiteSpace=wrap;html=1;" vertex="1" parent="qv7GSy7Ds0lQ_0GEcJ8r-21">
          <mxGeometry y="26" width="200" height="26" as="geometry" />
        </mxCell>
        <mxCell id="qv7GSy7Ds0lQ_0GEcJ8r-23" value="" style="line;strokeWidth=1;fillColor=none;align=left;verticalAlign=middle;spacingTop=-1;spacingLeft=3;spacingRight=3;rotatable=0;labelPosition=right;points=[];portConstraint=eastwest;strokeColor=inherit;" vertex="1" parent="qv7GSy7Ds0lQ_0GEcJ8r-21">
          <mxGeometry y="52" width="200" height="8" as="geometry" />
        </mxCell>
        <mxCell id="qv7GSy7Ds0lQ_0GEcJ8r-25" value="" style="endArrow=diamondThin;endFill=1;endSize=24;html=1;rounded=0;" edge="1" parent="WIyWlLk6GJQsqaUBKTNV-1" source="qv7GSy7Ds0lQ_0GEcJ8r-11" target="qv7GSy7Ds0lQ_0GEcJ8r-0">
          <mxGeometry width="160" relative="1" as="geometry">
            <mxPoint x="300" y="600" as="sourcePoint" />
            <mxPoint x="460" y="600" as="targetPoint" />
          </mxGeometry>
        </mxCell>
        <mxCell id="qv7GSy7Ds0lQ_0GEcJ8r-26" value="" style="endArrow=diamondThin;endFill=0;endSize=24;html=1;rounded=0;" edge="1" parent="WIyWlLk6GJQsqaUBKTNV-1" source="qv7GSy7Ds0lQ_0GEcJ8r-11" target="qv7GSy7Ds0lQ_0GEcJ8r-21">
          <mxGeometry width="160" relative="1" as="geometry">
            <mxPoint x="260" y="630" as="sourcePoint" />
            <mxPoint x="420" y="630" as="targetPoint" />
          </mxGeometry>
        </mxCell>
      </root>
    </mxGraphModel>
  </diagram>
</mxfile>
